HIERARCHY
ROOT Hips
{
 OFFSET 0.000000 0.000000 0.000000
 CHANNELS 6 Xposition Yposition Zposition Yrotation Xrotation Zrotation
 JOINT Chest
 {
  OFFSET 0.000000 11.395451 -0.039534
  CHANNELS 3 Yrotation Xrotation Zrotation
  JOINT Chest2
  {
   OFFSET 0.000000 9.398669 0.071813
   CHANNELS 3 Yrotation Xrotation Zrotation
   JOINT Chest3
   {
    OFFSET 0.000000 8.489801 0.000000
    CHANNELS 3 Yrotation Xrotation Zrotation
    JOINT Chest4
    {
     OFFSET 0.000000 8.489801 0.000000
     CHANNELS 3 Yrotation Xrotation Zrotation
     JOINT Neck
     {
      OFFSET 0.000000 12.404889 0.000000
      CHANNELS 3 Yrotation Xrotation Zrotation
      JOINT Head
      {
       OFFSET 0.000000 8.903270 0.092239
       CHANNELS 3 Yrotation Xrotation Zrotation
       End Site
       {
        OFFSET 0.000000 17.592497 0.007158
       }
      }
     }
     JOINT RightCollar
     {
      OFFSET -3.196775 6.966722 0.000000
      CHANNELS 3 Yrotation Xrotation Zrotation
      JOINT RightShoulder
      {
       OFFSET -15.955896 0.000000 0.000000
       CHANNELS 3 Yrotation Xrotation Zrotation
       JOINT RightElbow
       {
        OFFSET -24.792472 0.000000 0.000000
        CHANNELS 3 Yrotation Xrotation Zrotation
        JOINT RightWrist
        {
         OFFSET -20.900115 0.000000 0.025002
         CHANNELS 3 Yrotation Xrotation Zrotation
         End Site
         {
          OFFSET -16.056692 0.000000 0.000000
         }
        }
       }
      }
     }
     JOINT LeftCollar
     {
      OFFSET 3.196775 6.966722 0.000000
      CHANNELS 3 Yrotation Xrotation Zrotation
      JOINT LeftShoulder
      {
       OFFSET 15.955896 0.000000 0.000000
       CHANNELS 3 Yrotation Xrotation Zrotation
       JOINT LeftElbow
       {
        OFFSET 24.792472 0.000000 0.000000
        CHANNELS 3 Yrotation Xrotation Zrotation
        JOINT LeftWrist
        {
         OFFSET 20.900115 0.000000 0.025002
         CHANNELS 3 Yrotation Xrotation Zrotation
         End Site
         {
          OFFSET 16.056692 0.000000 0.000000
         }
        }
       }
      }
     }
    }
   }
  }
 }
 JOINT RightHip
 {
  OFFSET -9.568995 0.193718 0.019767
  CHANNELS 3 Yrotation Xrotation Zrotation
  JOINT RightKnee
  {
   OFFSET 0.000000 -56.649296 0.015402
   CHANNELS 3 Yrotation Xrotation Zrotation
   JOINT RightAnkle
   {
    OFFSET 0.000000 -41.365147 0.021264
    CHANNELS 3 Yrotation Xrotation Zrotation
    JOINT RightToe
    {
     OFFSET 0.000000 -7.465940 17.672538
     CHANNELS 3 Yrotation Xrotation Zrotation
     End Site
     {
      OFFSET 0.000000 -1.736315 7.837145
     }
    }
   }
  }
 }
 JOINT LeftHip
 {
  OFFSET 9.568995 0.193718 0.019767
  CHANNELS 3 Yrotation Xrotation Zrotation
  JOINT LeftKnee
  {
   OFFSET 0.000000 -56.649296 0.015402
   CHANNELS 3 Yrotation Xrotation Zrotation
   JOINT LeftAnkle
   {
    OFFSET 0.000000 -41.365147 0.021264
    CHANNELS 3 Yrotation Xrotation Zrotation
    JOINT LeftToe
    {
     OFFSET 0.000000 -7.465940 17.672538
     CHANNELS 3 Yrotation Xrotation Zrotation
     End Site
     {
      OFFSET 0.000000 -1.736315 7.837145
     }
    }
   }
  }
 }
}
MOTION
Frames: 15
Frame Time: 0.016667
-165.771132 106.154861 137.080413 4.854602 -8.729058 -0.129774 -0.579087 4.040896 -1.692121 -0.242464 1.798054 -0.746527 -0.242464 1.798054 -0.746527 -0.179636 1.348839 -0.559136 -6.797220 18.397578 1.928093 -13.109004 -1.522755 5.743390 1.227749 7.149926 10.120081 11.298380 -14.622707 75.436080 -2.541546 -9.537848 -5.943007 2.518115 0.778056 -6.381323 -1.474969 5.425578 -5.422893 0.441382 -8.566258 -76.954955 -0.513868 -1.248319 0.322484 3.844522 0.690494 -1.660331 2.376828 5.472474 -3.514866 -1.186049 9.123999 1.368384 -3.469167 -6.417891 0.875199 0.000000 -0.000000 0.000000 5.433485 7.237201 -0.079816 -0.687852 13.758476 0.962434 8.658484 -13.771758 0.103826 0.000000 0.000000 0.000000
-165.522801 106.163741 137.059230 4.723837 -8.401268 -0.262228 -0.566458 3.995523 -1.700482 -0.236954 1.777854 -0.750418 -0.236956 1.777854 -0.750418 -0.175520 1.333685 -0.562080 -7.606144 18.469788 2.032994 -14.617459 -1.280150 6.181090 1.169864 7.098517 10.068060 11.066554 -14.504895 75.628466 -2.542057 -10.006768 -6.013067 2.614253 0.681787 -6.462239 -1.422270 5.298248 -5.398145 0.357703 -8.627817 -76.888352 -0.417246 -1.340743 0.398809 3.857203 0.677750 -1.617513 2.072833 4.521607 -3.393158 -0.968699 10.374043 1.015718 -3.320939 -6.874464 1.308832 -0.000000 0.000000 -0.000000 5.273972 7.175719 -0.023215 -0.826245 13.175893 0.727669 8.951671 -13.373065 0.124447 0.000000 0.000000 0.000000
-165.274469 106.172622 137.038047 4.592417 -8.073778 -0.395328 -0.553993 3.950097 -1.708825 -0.231518 1.757630 -0.754297 -0.231520 1.757632 -0.754298 -0.171458 1.318513 -0.565014 -8.413686 18.546374 2.139917 -16.122330 -1.022779 6.615828 1.111722 7.047100 10.016407 10.836132 -14.385155 75.820399 -2.542623 -10.476134 -6.080066 2.711184 0.584643 -6.541322 -1.369903 5.170796 -5.373480 0.273888 -8.689038 -76.821443 -0.320709 -1.433468 0.474732 3.869899 0.664908 -1.574733 1.765866 3.572461 -3.262561 -0.756830 11.622627 0.658683 -3.173745 -7.331244 1.741593 -0.000000 0.000000 -0.000000 5.114769 7.114874 0.034685 -0.962489 12.591629 0.498457 9.246233 -12.975411 0.145569 0.000000 0.000000 0.000000
-165.031060 106.178242 137.031045 4.374943 -7.791806 -0.497955 -0.526172 3.925935 -1.735101 -0.219026 1.746816 -0.766236 -0.219026 1.746816 -0.766236 -0.162066 1.310389 -0.574006 -9.136349 18.596597 2.246486 -17.472952 -0.816939 7.023206 1.063117 6.993781 9.974810 10.627573 -14.255237 76.016272 -2.444972 -10.866576 -6.121026 2.823083 0.479485 -6.629585 -1.314419 5.059428 -5.337594 0.205371 -8.766083 -76.733660 -0.235592 -1.569723 0.534082 3.900228 0.664540 -1.528646 1.293154 2.720418 -3.195954 -0.486392 12.738531 0.333228 -2.825109 -7.704041 2.131806 0.000000 -0.000000 0.000000 5.115085 7.128876 0.093455 -0.940091 11.968493 0.303159 9.299960 -12.611335 0.200258 0.000000 -0.000000 0.000000
-164.793376 106.178315 137.044847 3.992911 -7.578183 -0.545077 -0.458795 3.935374 -1.795890 -0.188541 1.750811 -0.793792 -0.188539 1.750807 -0.793789 -0.139117 1.313351 -0.594754 -9.774102 18.605582 2.359372 -18.673286 -0.688776 7.420007 1.030497 6.933241 9.947625 10.454366 -14.103203 76.232081 -2.196574 -11.168962 -6.131302 2.962950 0.358163 -6.735210 -1.249268 4.968722 -5.282418 0.176771 -8.871904 -76.614357 -0.167939 -1.780165 0.572291 3.973426 0.699081 -1.480150 0.544407 1.985158 -3.235596 -0.119269 13.703523 0.036816 -2.111490 -7.962356 2.469170 0.000000 -0.000000 -0.000000 5.424508 7.270355 0.158284 -0.612040 11.257310 0.148752 8.882145 -12.285723 0.319229 -0.000000 0.000000 -0.000000
-164.560614 106.175126 137.072829 3.525623 -7.409910 -0.562453 -0.376169 3.965485 -1.875101 -0.151046 1.763936 -0.829644 -0.151044 1.763932 -0.829641 -0.110878 1.323154 -0.621744 -10.327202 18.587854 2.472697 -19.721404 -0.615889 7.794370 1.007443 6.870790 9.930554 10.303600 -13.940775 76.450992 -1.850625 -11.392205 -6.116013 3.118293 0.229534 -6.850345 -1.180736 4.894228 -5.215957 0.163456 -8.993371 -76.473993 -0.111704 -2.033890 0.593725 4.064248 0.746032 -1.428098 -0.366234 1.343930 -3.330030 0.309119 14.531838 -0.235314 -1.193682 -8.139218 2.757810 0.000000 -0.000000 -0.000000 5.893626 7.485532 0.221291 -0.128532 10.509946 0.013098 8.224491 -11.989111 0.466606 -0.000000 0.000000 0.000000
-164.335285 106.172270 137.109309 3.124470 -7.263846 -0.594980 -0.335404 4.000026 -1.941393 -0.132231 1.779180 -0.859407 -0.132231 1.779180 -0.859407 -0.096663 1.334574 -0.644119 -10.713067 18.554512 2.564576 -20.459281 -0.598885 8.080982 0.984576 6.820485 9.920243 10.155365 -13.795657 76.628413 -1.467764 -11.483984 -6.067449 3.264852 0.112134 -6.962487 -1.124509 4.838732 -5.150886 0.107082 -9.107092 -76.323219 -0.059971 -2.281664 0.595500 4.114647 0.750604 -1.366583 -1.264404 0.830488 -3.414988 0.755600 15.142944 -0.445380 -0.355869 -8.245452 2.979712 0.000000 -0.000000 0.000000 6.232907 7.688968 0.261667 0.221927 9.840193 -0.111306 7.777361 -11.735166 0.578262 0.000000 -0.000000 -0.000000
-164.119133 106.170702 137.152322 2.855096 -7.133983 -0.664219 -0.367441 4.039806 -1.984649 -0.145915 1.797034 -0.878304 -0.145913 1.797037 -0.878305 -0.106842 1.347993 -0.658247 -10.889105 18.498277 2.627825 -20.808050 -0.661773 8.257285 0.955467 6.795962 9.919404 10.014532 -13.690263 76.741289 -1.047643 -11.408601 -5.969861 3.395994 0.018243 -7.077745 -1.095900 4.818977 -5.089931 -0.024455 -9.207080 -76.153441 -0.019943 -2.527782 0.558490 4.077751 0.661050 -1.278952 -2.197071 0.462354 -3.475927 1.274080 15.492282 -0.568355 0.333050 -8.265954 3.125101 0.000000 -0.000000 -0.000000 6.313431 7.845196 0.272934 0.293308 9.302221 -0.219478 7.757038 -11.542060 0.623202 -0.000000 -0.000000 0.000000
-163.910413 106.169466 137.203833 2.651623 -7.026476 -0.747598 -0.441070 4.084657 -2.014601 -0.178157 1.817307 -0.890909 -0.178155 1.817309 -0.890910 -0.130954 1.363247 -0.667597 -10.899012 18.422593 2.667604 -20.848458 -0.790981 8.345846 0.926794 6.783699 9.925101 9.874725 -13.603494 76.813429 -0.590913 -11.202557 -5.837204 3.517902 -0.063780 -7.191205 -1.079296 4.818547 -5.030390 -0.198694 -9.298145 -75.972197 0.015653 -2.767785 0.501773 4.000744 0.529248 -1.181679 -3.117765 0.223297 -3.539131 1.813898 15.628005 -0.618115 0.940609 -8.213793 3.209949 0.000000 0.000000 -0.000000 6.263772 7.990212 0.262432 0.232743 8.840272 -0.303823 7.945152 -11.395477 0.637312 -0.000000 0.000000 -0.000000
-163.706409 106.169291 137.264041 2.467998 -6.936755 -0.823654 -0.520076 4.117298 -2.029279 -0.212975 1.832169 -0.896685 -0.212975 1.832169 -0.896685 -0.157029 1.374443 -0.671818 -10.789787 18.353501 2.679447 -20.661582 -0.933184 8.347087 0.908793 6.756855 9.925558 9.698708 -13.497966 76.870499 -0.159305 -10.921429 -5.707423 3.624924 -0.151849 -7.273988 -1.044315 4.790281 -4.976531 -0.377363 -9.373752 -75.814911 0.075695 -2.939421 0.479789 3.966756 0.455787 -1.119501 -3.713070 0.098555 -3.609690 2.175323 15.612546 -0.610552 1.386151 -8.141233 3.258228 0.000000 -0.000000 0.000000 6.180349 8.145933 0.230060 0.192631 8.402187 -0.359509 8.139422 -11.263179 0.659746 0.000000 -0.000000 -0.000000
-163.502650 106.169850 137.336156 2.281986 -6.867829 -0.883101 -0.596470 4.129257 -2.025885 -0.246885 1.837815 -0.894482 -0.246886 1.837817 -0.894482 -0.182460 1.378729 -0.670062 -10.550636 18.305037 2.658907 -20.224285 -1.065436 8.246590 0.909181 6.702404 9.913293 9.459904 -13.352736 76.919255 0.236403 -10.538607 -5.593663 3.720355 -0.263476 -7.311703 -0.973970 4.706701 -4.930862 -0.564350 -9.415583 -75.699675 0.195162 -2.993293 0.533687 4.021005 0.499603 -1.128808 -3.778929 0.107319 -3.699159 2.229165 15.438862 -0.534572 1.615460 -8.067963 3.267110 -0.000000 0.000000 -0.000000 6.052248 8.330490 0.160819 0.246839 7.962466 -0.379450 8.297809 -11.135714 0.704718 0.000000 0.000000 0.000000
-163.303607 106.171468 137.416970 2.115904 -6.816543 -0.935004 -0.678219 4.129199 -2.007059 -0.283359 1.838119 -0.885392 -0.283360 1.838121 -0.885393 -0.209839 1.379006 -0.663136 -10.192597 18.262873 2.609313 -19.559250 -1.209874 8.055768 0.920285 6.633173 9.895976 9.184837 -13.189344 76.951462 0.607697 -10.080434 -5.482382 3.800247 -0.381530 -7.319355 -0.885444 4.595153 -4.890443 -0.756046 -9.443206 -75.609737 0.339810 -2.978657 0.621839 4.117146 0.602214 -1.174187 -3.519238 0.229567 -3.802343 2.103305 15.116680 -0.400002 1.682426 -7.973728 3.240511 -0.000000 -0.000000 0.000000 5.889940 8.525376 0.069243 0.320744 7.546903 -0.372136 8.462177 -11.022306 0.758003 0.000000 -0.000000 0.000000
-163.119966 106.175851 137.497056 1.990577 -6.769069 -0.985637 -0.753095 4.125331 -1.979030 -0.316880 1.836676 -0.872282 -0.316880 1.836676 -0.872282 -0.235018 1.377963 -0.653203 -9.795147 18.211125 2.538300 -18.815898 -1.379725 7.814299 0.929124 6.561078 9.884589 8.916166 -13.033721 76.970585 0.926152 -9.680998 -5.374753 3.848065 -0.472337 -7.311584 -0.799806 4.490496 -4.851452 -0.903252 -9.507674 -75.528342 0.434095 -2.981344 0.675580 4.202027 0.687497 -1.193006 -3.232457 0.391156 -3.898216 1.983736 14.733090 -0.256083 1.668797 -7.851334 3.211366 0.000000 0.000000 0.000000 5.822281 8.697744 0.000128 0.343936 7.180506 -0.359762 8.556620 -10.917891 0.814740 0.000000 -0.000000 0.000000
-162.954475 106.184291 137.574228 1.918072 -6.721952 -1.037499 -0.819746 4.119210 -1.941705 -0.346842 1.834172 -0.855124 -0.346842 1.834171 -0.855123 -0.257543 1.376117 -0.640246 -9.372677 18.143785 2.443459 -18.020278 -1.583502 7.522552 0.929831 6.487367 9.885763 8.649738 -12.893879 76.973914 1.190795 -9.382453 -5.266534 3.854239 -0.520989 -7.296141 -0.720684 4.401860 -4.813012 -0.967029 -9.635750 -75.453176 0.460427 -3.026813 0.670058 4.270231 0.742875 -1.163920 -2.993848 0.584072 -3.979013 1.951823 14.288338 -0.109662 1.551500 -7.686017 3.186526 -0.000000 0.000000 -0.000000 5.912803 8.844302 -0.027878 0.286554 6.857080 -0.347177 8.537563 -10.810849 0.872657 0.000000 0.000000 0.000000
-162.804386 106.195494 137.650672 1.886314 -6.678525 -1.087967 -0.879525 4.109227 -1.895190 -0.373848 1.829898 -0.833955 -0.373849 1.829898 -0.833955 -0.277866 1.372938 -0.624294 -8.910685 18.067950 2.326983 -17.145328 -1.809267 7.178336 0.928318 6.410904 9.892697 8.389376 -12.762415 76.964855 1.402510 -9.142063 -5.164881 3.828132 -0.542545 -7.265077 -0.644414 4.320052 -4.776303 -0.986230 -9.801026 -75.386403 0.435838 -3.090109 0.631567 4.327946 0.780813 -1.107815 -2.728114 0.816535 -4.051719 1.925149 13.781190 0.043571 1.353792 -7.492413 3.158076 0.000000 0.000000 0.000000 6.098427 8.968541 -0.032237 0.178680 6.583055 -0.330952 8.448673 -10.712466 0.933558 0.000000 -0.000000 0.000000
